<svg width="54" height="54" viewBox="0 0 54 54" fill="none" xmlns="http://www.w3.org/2000/svg">
<circle cx="27.0039" cy="27" r="27" fill="#2E293A"/>
<path d="M28.6289 27.8125C28.8444 27.8125 29.0511 27.7269 29.2034 27.5745C29.3558 27.4222 29.4414 27.2155 29.4414 27C29.4414 26.7845 29.3558 26.5778 29.2034 26.4255C29.0511 26.2731 28.8444 26.1875 28.6289 26.1875H27.8164C27.8164 25.972 27.7308 25.7653 27.5784 25.613C27.4261 25.4606 27.2194 25.375 27.0039 25.375C26.7884 25.375 26.5818 25.4606 26.4294 25.613C26.277 25.7653 26.1914 25.972 26.1914 26.1875C25.7604 26.1875 25.3471 26.3587 25.0424 26.6635C24.7376 26.9682 24.5664 27.3815 24.5664 27.8125V28.625C24.5664 29.056 24.7376 29.4693 25.0424 29.774C25.3471 30.0788 25.7604 30.25 26.1914 30.25H27.8164V31.0625H25.3789C25.1634 31.0625 24.9568 31.1481 24.8044 31.3005C24.652 31.4528 24.5664 31.6595 24.5664 31.875C24.5664 32.0905 24.652 32.2972 24.8044 32.4495C24.9568 32.6019 25.1634 32.6875 25.3789 32.6875H26.1914C26.1914 32.903 26.277 33.1097 26.4294 33.262C26.5818 33.4144 26.7884 33.5 27.0039 33.5C27.2194 33.5 27.4261 33.4144 27.5784 33.262C27.7308 33.1097 27.8164 32.903 27.8164 32.6875C28.2474 32.6875 28.6607 32.5163 28.9655 32.2115C29.2702 31.9068 29.4414 31.4935 29.4414 31.0625V30.25C29.4414 29.819 29.2702 29.4057 28.9655 29.101C28.6607 28.7962 28.2474 28.625 27.8164 28.625H26.1914V27.8125H28.6289Z" fill="#9998A0"/>
<path d="M35.1295 33.6482V27.8145C35.1324 26.3855 34.7583 24.9811 34.045 23.7429C33.3317 22.5047 32.3045 21.4765 31.067 20.762L32.692 16.7401C32.7411 16.6171 32.7594 16.4839 32.7452 16.3522C32.731 16.2205 32.6849 16.0943 32.6108 15.9845C32.5311 15.8659 32.4215 15.7703 32.2932 15.7076C32.1648 15.6448 32.0221 15.617 31.8795 15.627H22.1295C21.9964 15.6268 21.8653 15.6593 21.7478 15.7216C21.6302 15.784 21.5297 15.8742 21.4552 15.9845C21.381 16.0943 21.3349 16.2205 21.3207 16.3522C21.3066 16.4839 21.3248 16.6171 21.3739 16.7401L22.9989 20.8026C21.7568 21.5064 20.722 22.5251 19.9988 23.7561C19.2756 24.987 18.8896 26.3868 18.8795 27.8145V33.6482C18.3422 33.8432 17.8904 34.2209 17.6033 34.7152C17.3161 35.2094 17.2118 35.7889 17.3086 36.3523C17.4054 36.9157 17.6972 37.4272 18.1329 37.7973C18.5685 38.1673 19.1204 38.3726 19.692 38.377H34.317C34.8887 38.3726 35.4405 38.1673 35.8762 37.7973C36.3119 37.4272 36.6036 36.9157 36.7004 36.3523C36.7972 35.7889 36.6929 35.2094 36.4058 34.7152C36.1186 34.2209 35.6669 33.8432 35.1295 33.6482ZM24.307 19.6895L23.332 17.252H30.6445L29.6695 19.6895H24.307ZM34.317 36.752H19.692C19.4765 36.752 19.2699 36.6664 19.1175 36.514C18.9651 36.3616 18.8795 36.155 18.8795 35.9395C18.8795 35.724 18.9651 35.5173 19.1175 35.365C19.2699 35.2126 19.4765 35.127 19.692 35.127H20.5045C20.72 35.127 20.9267 35.0414 21.0791 34.889C21.2314 34.7366 21.317 34.53 21.317 34.3145C21.317 34.099 21.2314 33.8923 21.0791 33.74C20.9267 33.5876 20.72 33.502 20.5045 33.502V27.8145C20.5045 26.0906 21.1894 24.4373 22.4083 23.2183C23.6273 21.9993 25.2806 21.3145 27.0045 21.3145C28.7284 21.3145 30.3817 21.9993 31.6007 23.2183C32.8197 24.4373 33.5045 26.0906 33.5045 27.8145V33.502C33.289 33.502 33.0824 33.5876 32.93 33.74C32.7776 33.8923 32.692 34.099 32.692 34.3145C32.692 34.53 32.7776 34.7366 32.93 34.889C33.0824 35.0414 33.289 35.127 33.5045 35.127H34.317C34.5325 35.127 34.7392 35.2126 34.8916 35.365C35.0439 35.5173 35.1295 35.724 35.1295 35.9395C35.1295 36.155 35.0439 36.3616 34.8916 36.514C34.7392 36.6664 34.5325 36.752 34.317 36.752Z" fill="#9998A0"/>
</svg>
