<svg width="54" height="54" viewBox="0 0 54 54" fill="none" xmlns="http://www.w3.org/2000/svg">
<circle cx="27.0039" cy="27" r="27" fill="#2E293A"/>
<path d="M34.0516 31.4887C32.8059 31.4887 31.6835 32.0267 30.9045 32.8825L23.8981 28.543C24.0852 28.0642 24.1889 27.5441 24.1889 27C24.1889 26.4557 24.0852 25.9356 23.8981 25.4569L30.9045 21.1173C31.6835 21.973 32.8059 22.5112 34.0516 22.5112C36.3982 22.5112 38.3073 20.6021 38.3073 18.2555C38.3073 15.9089 36.3982 14 34.0516 14C31.7049 14 29.7959 15.9091 29.7959 18.2557C29.7959 18.7998 29.8998 19.3199 30.0867 19.7988L23.0805 24.1382C22.3015 23.2824 21.1792 22.7443 19.9334 22.7443C17.5868 22.7443 15.6777 24.6535 15.6777 27C15.6777 29.3466 17.5868 31.2557 19.9334 31.2557C21.1792 31.2557 22.3015 30.7177 23.0805 29.8618L30.0867 34.2012C29.8998 34.68 29.7959 35.2001 29.7959 35.7444C29.7959 38.0909 31.7049 39.9999 34.0516 39.9999C36.3982 39.9999 38.3073 38.0909 38.3073 35.7444C38.3073 33.3978 36.3982 31.4887 34.0516 31.4887ZM31.3477 18.2557C31.3477 16.7648 32.5607 15.5518 34.0516 15.5518C35.5425 15.5518 36.7555 16.7648 36.7555 18.2557C36.7555 19.7466 35.5425 20.9596 34.0516 20.9596C32.5607 20.9596 31.3477 19.7466 31.3477 18.2557ZM19.9334 29.7039C18.4423 29.7039 17.2293 28.4909 17.2293 27C17.2293 25.5091 18.4423 24.2961 19.9334 24.2961C21.4243 24.2961 22.6371 25.5091 22.6371 27C22.6371 28.4909 21.4243 29.7039 19.9334 29.7039ZM31.3477 35.7442C31.3477 34.2533 32.5607 33.0403 34.0516 33.0403C35.5425 33.0403 36.7555 34.2533 36.7555 35.7442C36.7555 37.2351 35.5425 38.4481 34.0516 38.4481C32.5607 38.4481 31.3477 37.2351 31.3477 35.7442Z" fill="#9998A0"/>
</svg>
