<svg width="199" height="182" viewBox="0 0 199 182" fill="none" xmlns="http://www.w3.org/2000/svg">
<ellipse cx="2.68919" cy="2.67647" rx="2.68919" ry="2.67647" fill="#9D80F8" fill-opacity="0.3"/>
<ellipse cx="2.68919" cy="18.7351" rx="2.68919" ry="2.67647" fill="#9D80F8" fill-opacity="0.3"/>
<ellipse cx="2.68919" cy="34.7937" rx="2.68919" ry="2.67647" fill="#9D80F8" fill-opacity="0.3"/>
<ellipse cx="2.68919" cy="50.8522" rx="2.68919" ry="2.67647" fill="#9D80F8" fill-opacity="0.3"/>
<ellipse cx="2.68919" cy="66.9109" rx="2.68919" ry="2.67648" fill="#9D80F8" fill-opacity="0.3"/>
<ellipse cx="2.68919" cy="82.9714" rx="2.68919" ry="2.67647" fill="#9D80F8" fill-opacity="0.3"/>
<ellipse cx="2.68919" cy="99.03" rx="2.68919" ry="2.67647" fill="#9D80F8" fill-opacity="0.3"/>
<ellipse cx="2.68919" cy="115.089" rx="2.68919" ry="2.67648" fill="#9D80F8" fill-opacity="0.3"/>
<ellipse cx="2.68919" cy="131.147" rx="2.68919" ry="2.67647" fill="#9D80F8" fill-opacity="0.3"/>
<ellipse cx="2.68919" cy="147.206" rx="2.68919" ry="2.67647" fill="#9D80F8" fill-opacity="0.3"/>
<ellipse cx="2.68919" cy="163.264" rx="2.68919" ry="2.67647" fill="#9D80F8" fill-opacity="0.3"/>
<ellipse cx="2.68919" cy="179.323" rx="2.68919" ry="2.67648" fill="#9D80F8" fill-opacity="0.3"/>
<ellipse cx="18.824" cy="2.67647" rx="2.68919" ry="2.67647" fill="#9D80F8" fill-opacity="0.3"/>
<ellipse cx="18.824" cy="18.7351" rx="2.68919" ry="2.67647" fill="#9D80F8" fill-opacity="0.3"/>
<ellipse cx="18.824" cy="34.7937" rx="2.68919" ry="2.67647" fill="#9D80F8" fill-opacity="0.3"/>
<ellipse cx="18.824" cy="50.8522" rx="2.68919" ry="2.67647" fill="#9D80F8" fill-opacity="0.3"/>
<ellipse cx="18.824" cy="66.9109" rx="2.68919" ry="2.67648" fill="#9D80F8" fill-opacity="0.3"/>
<ellipse cx="18.824" cy="82.9714" rx="2.68919" ry="2.67647" fill="#9D80F8" fill-opacity="0.3"/>
<ellipse cx="18.824" cy="99.03" rx="2.68919" ry="2.67647" fill="#9D80F8" fill-opacity="0.3"/>
<ellipse cx="18.824" cy="115.089" rx="2.68919" ry="2.67648" fill="#9D80F8" fill-opacity="0.3"/>
<ellipse cx="18.824" cy="131.147" rx="2.68919" ry="2.67647" fill="#9D80F8" fill-opacity="0.3"/>
<ellipse cx="18.824" cy="147.206" rx="2.68919" ry="2.67647" fill="#9D80F8" fill-opacity="0.3"/>
<ellipse cx="18.824" cy="163.264" rx="2.68919" ry="2.67647" fill="#9D80F8" fill-opacity="0.3"/>
<ellipse cx="18.824" cy="179.323" rx="2.68919" ry="2.67648" fill="#9D80F8" fill-opacity="0.3"/>
<ellipse cx="34.9587" cy="2.67647" rx="2.68919" ry="2.67647" fill="#9D80F8" fill-opacity="0.3"/>
<ellipse cx="34.9587" cy="18.7351" rx="2.68919" ry="2.67647" fill="#9D80F8" fill-opacity="0.3"/>
<ellipse cx="34.9587" cy="34.7937" rx="2.68919" ry="2.67647" fill="#9D80F8" fill-opacity="0.3"/>
<ellipse cx="34.9587" cy="50.8522" rx="2.68919" ry="2.67647" fill="#9D80F8" fill-opacity="0.3"/>
<ellipse cx="34.9587" cy="66.9109" rx="2.68919" ry="2.67648" fill="#9D80F8" fill-opacity="0.3"/>
<ellipse cx="34.9587" cy="82.9714" rx="2.68919" ry="2.67647" fill="#9D80F8" fill-opacity="0.3"/>
<ellipse cx="34.9587" cy="99.03" rx="2.68919" ry="2.67647" fill="#9D80F8" fill-opacity="0.3"/>
<ellipse cx="34.9587" cy="115.089" rx="2.68919" ry="2.67648" fill="#9D80F8" fill-opacity="0.3"/>
<ellipse cx="34.9587" cy="131.147" rx="2.68919" ry="2.67647" fill="#9D80F8" fill-opacity="0.3"/>
<ellipse cx="34.9587" cy="147.206" rx="2.68919" ry="2.67647" fill="#9D80F8" fill-opacity="0.3"/>
<ellipse cx="34.9587" cy="163.264" rx="2.68919" ry="2.67647" fill="#9D80F8" fill-opacity="0.3"/>
<ellipse cx="34.9587" cy="179.323" rx="2.68919" ry="2.67648" fill="#9D80F8" fill-opacity="0.3"/>
<ellipse cx="51.0954" cy="2.67647" rx="2.68919" ry="2.67647" fill="#9D80F8" fill-opacity="0.3"/>
<ellipse cx="51.0954" cy="18.7351" rx="2.68919" ry="2.67647" fill="#9D80F8" fill-opacity="0.3"/>
<ellipse cx="51.0954" cy="34.7937" rx="2.68919" ry="2.67647" fill="#9D80F8" fill-opacity="0.3"/>
<ellipse cx="51.0954" cy="50.8522" rx="2.68919" ry="2.67647" fill="#9D80F8" fill-opacity="0.3"/>
<ellipse cx="51.0954" cy="66.9109" rx="2.68919" ry="2.67648" fill="#9D80F8" fill-opacity="0.3"/>
<ellipse cx="51.0954" cy="82.9714" rx="2.68919" ry="2.67647" fill="#9D80F8" fill-opacity="0.3"/>
<ellipse cx="51.0954" cy="99.03" rx="2.68919" ry="2.67647" fill="#9D80F8" fill-opacity="0.3"/>
<ellipse cx="51.0954" cy="115.089" rx="2.68919" ry="2.67648" fill="#9D80F8" fill-opacity="0.3"/>
<ellipse cx="51.0954" cy="131.147" rx="2.68919" ry="2.67647" fill="#9D80F8" fill-opacity="0.3"/>
<ellipse cx="51.0954" cy="147.206" rx="2.68919" ry="2.67647" fill="#9D80F8" fill-opacity="0.3"/>
<ellipse cx="51.0954" cy="163.264" rx="2.68919" ry="2.67647" fill="#9D80F8" fill-opacity="0.3"/>
<ellipse cx="51.0954" cy="179.323" rx="2.68919" ry="2.67648" fill="#9D80F8" fill-opacity="0.3"/>
<ellipse cx="67.2302" cy="2.67647" rx="2.68919" ry="2.67647" fill="#9D80F8" fill-opacity="0.3"/>
<ellipse cx="67.2302" cy="18.7351" rx="2.68919" ry="2.67647" fill="#9D80F8" fill-opacity="0.3"/>
<ellipse cx="67.2302" cy="34.7937" rx="2.68919" ry="2.67647" fill="#9D80F8" fill-opacity="0.3"/>
<ellipse cx="67.2302" cy="50.8522" rx="2.68919" ry="2.67647" fill="#9D80F8" fill-opacity="0.3"/>
<ellipse cx="67.2302" cy="66.9109" rx="2.68919" ry="2.67648" fill="#9D80F8" fill-opacity="0.3"/>
<ellipse cx="67.2302" cy="82.9714" rx="2.68919" ry="2.67647" fill="#9D80F8" fill-opacity="0.3"/>
<ellipse cx="67.2302" cy="99.03" rx="2.68919" ry="2.67647" fill="#9D80F8" fill-opacity="0.3"/>
<ellipse cx="67.2302" cy="115.089" rx="2.68919" ry="2.67648" fill="#9D80F8" fill-opacity="0.3"/>
<ellipse cx="67.2302" cy="131.147" rx="2.68919" ry="2.67647" fill="#9D80F8" fill-opacity="0.3"/>
<ellipse cx="67.2302" cy="147.206" rx="2.68919" ry="2.67647" fill="#9D80F8" fill-opacity="0.3"/>
<ellipse cx="67.2302" cy="163.264" rx="2.68919" ry="2.67647" fill="#9D80F8" fill-opacity="0.3"/>
<ellipse cx="67.2302" cy="179.323" rx="2.68919" ry="2.67648" fill="#9D80F8" fill-opacity="0.3"/>
<ellipse cx="83.365" cy="2.67647" rx="2.68919" ry="2.67647" fill="#9D80F8" fill-opacity="0.3"/>
<ellipse cx="83.365" cy="18.7351" rx="2.68919" ry="2.67647" fill="#9D80F8" fill-opacity="0.3"/>
<ellipse cx="83.365" cy="34.7937" rx="2.68919" ry="2.67647" fill="#9D80F8" fill-opacity="0.3"/>
<ellipse cx="83.365" cy="50.8522" rx="2.68919" ry="2.67647" fill="#9D80F8" fill-opacity="0.3"/>
<ellipse cx="83.365" cy="66.9109" rx="2.68919" ry="2.67648" fill="#9D80F8" fill-opacity="0.3"/>
<ellipse cx="83.365" cy="82.9714" rx="2.68919" ry="2.67647" fill="#9D80F8" fill-opacity="0.3"/>
<ellipse cx="83.365" cy="99.03" rx="2.68919" ry="2.67647" fill="#9D80F8" fill-opacity="0.3"/>
<ellipse cx="83.365" cy="115.089" rx="2.68919" ry="2.67648" fill="#9D80F8" fill-opacity="0.3"/>
<ellipse cx="83.365" cy="131.147" rx="2.68919" ry="2.67647" fill="#9D80F8" fill-opacity="0.3"/>
<ellipse cx="83.365" cy="147.206" rx="2.68919" ry="2.67647" fill="#9D80F8" fill-opacity="0.3"/>
<ellipse cx="83.365" cy="163.264" rx="2.68919" ry="2.67647" fill="#9D80F8" fill-opacity="0.3"/>
<ellipse cx="83.365" cy="179.323" rx="2.68919" ry="2.67648" fill="#9D80F8" fill-opacity="0.3"/>
<ellipse cx="99.4997" cy="2.67647" rx="2.68919" ry="2.67647" fill="#9D80F8" fill-opacity="0.3"/>
<ellipse cx="99.4997" cy="18.7351" rx="2.68919" ry="2.67647" fill="#9D80F8" fill-opacity="0.3"/>
<ellipse cx="99.4997" cy="34.7937" rx="2.68919" ry="2.67647" fill="#9D80F8" fill-opacity="0.3"/>
<ellipse cx="99.4997" cy="50.8522" rx="2.68919" ry="2.67647" fill="#9D80F8" fill-opacity="0.3"/>
<ellipse cx="99.4997" cy="66.9109" rx="2.68919" ry="2.67648" fill="#9D80F8" fill-opacity="0.3"/>
<ellipse cx="99.4997" cy="82.9714" rx="2.68919" ry="2.67647" fill="#9D80F8" fill-opacity="0.3"/>
<ellipse cx="99.4997" cy="99.03" rx="2.68919" ry="2.67647" fill="#9D80F8" fill-opacity="0.3"/>
<ellipse cx="99.4997" cy="115.089" rx="2.68919" ry="2.67648" fill="#9D80F8" fill-opacity="0.3"/>
<ellipse cx="99.4997" cy="131.147" rx="2.68919" ry="2.67647" fill="#9D80F8" fill-opacity="0.3"/>
<ellipse cx="99.4997" cy="147.206" rx="2.68919" ry="2.67647" fill="#9D80F8" fill-opacity="0.3"/>
<ellipse cx="99.4997" cy="163.264" rx="2.68919" ry="2.67647" fill="#9D80F8" fill-opacity="0.3"/>
<ellipse cx="99.4997" cy="179.323" rx="2.68919" ry="2.67648" fill="#9D80F8" fill-opacity="0.3"/>
<ellipse cx="115.634" cy="2.67647" rx="2.68919" ry="2.67647" fill="#9D80F8" fill-opacity="0.3"/>
<ellipse cx="131.771" cy="2.67647" rx="2.68919" ry="2.67647" fill="#9D80F8" fill-opacity="0.3"/>
<ellipse cx="147.906" cy="2.67647" rx="2.6892" ry="2.67647" fill="#9D80F8" fill-opacity="0.3"/>
<ellipse cx="164.041" cy="2.67647" rx="2.68919" ry="2.67647" fill="#9D80F8" fill-opacity="0.3"/>
<ellipse cx="180.176" cy="2.67647" rx="2.68919" ry="2.67647" fill="#9D80F8" fill-opacity="0.3"/>
<ellipse cx="196.31" cy="2.67647" rx="2.68919" ry="2.67647" fill="#9D80F8" fill-opacity="0.3"/>
<ellipse cx="115.634" cy="18.7351" rx="2.68919" ry="2.67647" fill="#9D80F8" fill-opacity="0.3"/>
<ellipse cx="131.771" cy="18.7351" rx="2.68919" ry="2.67647" fill="#9D80F8" fill-opacity="0.3"/>
<ellipse cx="147.906" cy="18.7351" rx="2.6892" ry="2.67647" fill="#9D80F8" fill-opacity="0.3"/>
<ellipse cx="164.041" cy="18.7351" rx="2.68919" ry="2.67647" fill="#9D80F8" fill-opacity="0.3"/>
<ellipse cx="180.176" cy="18.7351" rx="2.68919" ry="2.67647" fill="#9D80F8" fill-opacity="0.3"/>
<ellipse cx="196.31" cy="18.7351" rx="2.68919" ry="2.67647" fill="#9D80F8" fill-opacity="0.3"/>
<ellipse cx="115.634" cy="34.7937" rx="2.68918" ry="2.67647" fill="#9D80F8" fill-opacity="0.3"/>
<ellipse cx="131.771" cy="34.7937" rx="2.68918" ry="2.67647" fill="#9D80F8" fill-opacity="0.3"/>
<ellipse cx="147.906" cy="34.7937" rx="2.68919" ry="2.67647" fill="#9D80F8" fill-opacity="0.3"/>
<ellipse cx="164.041" cy="34.7937" rx="2.68919" ry="2.67647" fill="#9D80F8" fill-opacity="0.3"/>
<ellipse cx="180.176" cy="34.7937" rx="2.68919" ry="2.67647" fill="#9D80F8" fill-opacity="0.3"/>
<ellipse cx="196.31" cy="34.7937" rx="2.68919" ry="2.67647" fill="#9D80F8" fill-opacity="0.3"/>
<ellipse cx="115.634" cy="50.8522" rx="2.68919" ry="2.67647" fill="#9D80F8" fill-opacity="0.3"/>
<ellipse cx="131.771" cy="50.8522" rx="2.68919" ry="2.67647" fill="#9D80F8" fill-opacity="0.3"/>
<ellipse cx="147.906" cy="50.8522" rx="2.6892" ry="2.67647" fill="#9D80F8" fill-opacity="0.3"/>
<ellipse cx="164.041" cy="50.8522" rx="2.68919" ry="2.67647" fill="#9D80F8" fill-opacity="0.3"/>
<ellipse cx="180.176" cy="50.8522" rx="2.68919" ry="2.67647" fill="#9D80F8" fill-opacity="0.3"/>
<ellipse cx="196.31" cy="50.8522" rx="2.68919" ry="2.67647" fill="#9D80F8" fill-opacity="0.3"/>
<ellipse cx="115.634" cy="66.9109" rx="2.68919" ry="2.67648" fill="#9D80F8" fill-opacity="0.3"/>
<ellipse cx="131.771" cy="66.9109" rx="2.68919" ry="2.67648" fill="#9D80F8" fill-opacity="0.3"/>
<ellipse cx="147.906" cy="66.9109" rx="2.6892" ry="2.67648" fill="#9D80F8" fill-opacity="0.3"/>
<ellipse cx="164.041" cy="66.9109" rx="2.68919" ry="2.67648" fill="#9D80F8" fill-opacity="0.3"/>
<ellipse cx="180.176" cy="66.9109" rx="2.68919" ry="2.67648" fill="#9D80F8" fill-opacity="0.3"/>
<ellipse cx="196.31" cy="66.9109" rx="2.68919" ry="2.67648" fill="#9D80F8" fill-opacity="0.3"/>
<ellipse cx="115.634" cy="82.9714" rx="2.68919" ry="2.67647" fill="#9D80F8" fill-opacity="0.3"/>
<ellipse cx="131.771" cy="82.9714" rx="2.68919" ry="2.67647" fill="#9D80F8" fill-opacity="0.3"/>
<ellipse cx="147.906" cy="82.9714" rx="2.6892" ry="2.67647" fill="#9D80F8" fill-opacity="0.3"/>
<ellipse cx="164.041" cy="82.9714" rx="2.68919" ry="2.67647" fill="#9D80F8" fill-opacity="0.3"/>
<ellipse cx="180.176" cy="82.9714" rx="2.68919" ry="2.67647" fill="#9D80F8" fill-opacity="0.3"/>
<ellipse cx="196.31" cy="82.9714" rx="2.68919" ry="2.67647" fill="#9D80F8" fill-opacity="0.3"/>
<ellipse cx="115.634" cy="99.03" rx="2.68919" ry="2.67647" fill="#9D80F8" fill-opacity="0.3"/>
<ellipse cx="131.771" cy="99.03" rx="2.68919" ry="2.67647" fill="#9D80F8" fill-opacity="0.3"/>
<ellipse cx="147.906" cy="99.03" rx="2.6892" ry="2.67647" fill="#9D80F8" fill-opacity="0.3"/>
<ellipse cx="164.041" cy="99.03" rx="2.68919" ry="2.67647" fill="#9D80F8" fill-opacity="0.3"/>
<ellipse cx="180.176" cy="99.03" rx="2.68919" ry="2.67647" fill="#9D80F8" fill-opacity="0.3"/>
<ellipse cx="196.31" cy="99.03" rx="2.68919" ry="2.67647" fill="#9D80F8" fill-opacity="0.3"/>
<ellipse cx="115.634" cy="115.089" rx="2.68919" ry="2.67648" fill="#9D80F8" fill-opacity="0.3"/>
<ellipse cx="131.771" cy="115.089" rx="2.68919" ry="2.67648" fill="#9D80F8" fill-opacity="0.3"/>
<ellipse cx="147.906" cy="115.089" rx="2.6892" ry="2.67648" fill="#9D80F8" fill-opacity="0.3"/>
<ellipse cx="164.041" cy="115.089" rx="2.68919" ry="2.67648" fill="#9D80F8" fill-opacity="0.3"/>
<ellipse cx="180.176" cy="115.089" rx="2.68919" ry="2.67648" fill="#9D80F8" fill-opacity="0.3"/>
<ellipse cx="196.31" cy="115.089" rx="2.68919" ry="2.67648" fill="#9D80F8" fill-opacity="0.3"/>
<ellipse cx="115.634" cy="131.147" rx="2.68919" ry="2.67647" fill="#9D80F8" fill-opacity="0.3"/>
<ellipse cx="131.771" cy="131.147" rx="2.68919" ry="2.67647" fill="#9D80F8" fill-opacity="0.3"/>
<ellipse cx="147.906" cy="131.147" rx="2.6892" ry="2.67647" fill="#9D80F8" fill-opacity="0.3"/>
<ellipse cx="164.041" cy="131.147" rx="2.68919" ry="2.67647" fill="#9D80F8" fill-opacity="0.3"/>
<ellipse cx="180.176" cy="131.147" rx="2.68919" ry="2.67647" fill="#9D80F8" fill-opacity="0.3"/>
<ellipse cx="196.31" cy="131.147" rx="2.68919" ry="2.67647" fill="#9D80F8" fill-opacity="0.3"/>
<ellipse cx="115.634" cy="147.206" rx="2.68919" ry="2.67647" fill="#9D80F8" fill-opacity="0.3"/>
<ellipse cx="131.771" cy="147.206" rx="2.68919" ry="2.67647" fill="#9D80F8" fill-opacity="0.3"/>
<ellipse cx="147.906" cy="147.206" rx="2.6892" ry="2.67647" fill="#9D80F8" fill-opacity="0.3"/>
<ellipse cx="164.041" cy="147.206" rx="2.68919" ry="2.67647" fill="#9D80F8" fill-opacity="0.3"/>
<ellipse cx="180.176" cy="147.206" rx="2.68919" ry="2.67647" fill="#9D80F8" fill-opacity="0.3"/>
<ellipse cx="196.31" cy="147.206" rx="2.68919" ry="2.67647" fill="#9D80F8" fill-opacity="0.3"/>
<ellipse cx="115.634" cy="163.264" rx="2.68919" ry="2.67647" fill="#9D80F8" fill-opacity="0.3"/>
<ellipse cx="131.771" cy="163.264" rx="2.68919" ry="2.67647" fill="#9D80F8" fill-opacity="0.3"/>
<ellipse cx="147.906" cy="163.264" rx="2.6892" ry="2.67647" fill="#9D80F8" fill-opacity="0.3"/>
<ellipse cx="164.041" cy="163.264" rx="2.68919" ry="2.67647" fill="#9D80F8" fill-opacity="0.3"/>
<ellipse cx="180.176" cy="163.264" rx="2.68919" ry="2.67647" fill="#9D80F8" fill-opacity="0.3"/>
<ellipse cx="196.31" cy="163.264" rx="2.68919" ry="2.67647" fill="#9D80F8" fill-opacity="0.3"/>
<ellipse cx="115.634" cy="179.323" rx="2.68918" ry="2.67648" fill="#9D80F8" fill-opacity="0.3"/>
<ellipse cx="131.771" cy="179.323" rx="2.68918" ry="2.67648" fill="#9D80F8" fill-opacity="0.3"/>
<ellipse cx="147.906" cy="179.323" rx="2.68919" ry="2.67648" fill="#9D80F8" fill-opacity="0.3"/>
<ellipse cx="164.041" cy="179.323" rx="2.68919" ry="2.67648" fill="#9D80F8" fill-opacity="0.3"/>
<ellipse cx="180.176" cy="179.323" rx="2.68919" ry="2.67648" fill="#9D80F8" fill-opacity="0.3"/>
<ellipse cx="196.31" cy="179.323" rx="2.68919" ry="2.67648" fill="#9D80F8" fill-opacity="0.3"/>
</svg>
