<svg width="54" height="54" viewBox="0 0 54 54" fill="none" xmlns="http://www.w3.org/2000/svg">
<circle cx="27.0039" cy="27" r="27" fill="#E7E5FF"/>
<path d="M27.0039 15.625C24.7541 15.625 22.5549 16.2921 20.6843 17.542C18.8137 18.7919 17.3557 20.5685 16.4948 22.647C15.6338 24.7255 15.4086 27.0126 15.8475 29.2192C16.2864 31.4257 17.3697 33.4525 18.9606 35.0433C20.5514 36.6342 22.5782 37.7175 24.7848 38.1564C26.9913 38.5953 29.2784 38.3701 31.3569 37.5091C33.4354 36.6482 35.212 35.1902 36.4619 33.3196C37.7118 31.449 38.3789 29.2498 38.3789 27C38.3789 23.9832 37.1805 21.0899 35.0473 18.9567C32.914 16.8234 30.0207 15.625 27.0039 15.625ZM27.0039 36.75C25.0755 36.75 23.1905 36.1782 21.5871 35.1068C19.9837 34.0355 18.734 32.5127 17.9961 30.7312C17.2581 28.9496 17.065 26.9892 17.4413 25.0979C17.8175 23.2066 18.7461 21.4693 20.1096 20.1057C21.4732 18.7421 23.2105 17.8135 25.1018 17.4373C26.9931 17.0611 28.9535 17.2542 30.7351 17.9922C32.5167 18.7301 34.0394 19.9798 35.1107 21.5832C36.1821 23.1866 36.7539 25.0716 36.7539 27C36.7539 29.5859 35.7267 32.0658 33.8982 33.8943C32.0697 35.7228 29.5898 36.75 27.0039 36.75Z" fill="#635BFE"/>
<path d="M32.6914 26.1875H27.8164V21.3125C27.8164 21.097 27.7308 20.8903 27.5784 20.738C27.4261 20.5856 27.2194 20.5 27.0039 20.5C26.7884 20.5 26.5818 20.5856 26.4294 20.738C26.277 20.8903 26.1914 21.097 26.1914 21.3125V26.1875H21.3164C21.1009 26.1875 20.8943 26.2731 20.7419 26.4255C20.5895 26.5778 20.5039 26.7845 20.5039 27C20.5039 27.2155 20.5895 27.4222 20.7419 27.5745C20.8943 27.7269 21.1009 27.8125 21.3164 27.8125H26.1914V32.6875C26.1914 32.903 26.277 33.1097 26.4294 33.262C26.5818 33.4144 26.7884 33.5 27.0039 33.5C27.2194 33.5 27.4261 33.4144 27.5784 33.262C27.7308 33.1097 27.8164 32.903 27.8164 32.6875V27.8125H32.6914C32.9069 27.8125 33.1136 27.7269 33.2659 27.5745C33.4183 27.4222 33.5039 27.2155 33.5039 27C33.5039 26.7845 33.4183 26.5778 33.2659 26.4255C33.1136 26.2731 32.9069 26.1875 32.6914 26.1875Z" fill="#635BFE"/>
</svg>
